<svg width="20" height="20" viewBox="0 0 20 20" fill="none" xmlns="http://www.w3.org/2000/svg">
<path fill-rule="evenodd" clip-rule="evenodd" d="M8.5 2.00025C6.77609 2.00025 5.12279 2.68507 3.90381 3.90406C2.68482 5.12305 2 6.77635 2 8.50025C2 10.2242 2.68482 11.8775 3.90381 13.0964C5.12279 14.3154 6.77609 15.0003 8.5 15.0003C10.2239 15.0003 11.8772 14.3154 13.0962 13.0964C14.3152 11.8775 15 10.2242 15 8.50025C15 6.77635 14.3152 5.12305 13.0962 3.90406C11.8772 2.68507 10.2239 2.00025 8.5 2.00025ZM1.91687e-08 8.50025C0.000115492 7.14485 0.324364 5.80912 0.945694 4.60451C1.56702 3.3999 2.46742 2.36135 3.57175 1.57549C4.67609 0.789633 5.95235 0.279263 7.29404 0.0869618C8.63574 -0.10534 10.004 0.0260029 11.2846 0.470032C12.5652 0.914061 13.7211 1.6579 14.6557 2.63949C15.5904 3.62108 16.2768 4.81196 16.6576 6.11277C17.0384 7.41358 17.1026 8.7866 16.8449 10.1173C16.5872 11.448 16.015 12.6977 15.176 13.7623L18.828 17.4143C19.0102 17.6029 19.111 17.8555 19.1087 18.1177C19.1064 18.3799 19.0012 18.6307 18.8158 18.8161C18.6304 19.0015 18.3796 19.1066 18.1174 19.1089C17.8552 19.1112 17.6026 19.0104 17.414 18.8283L13.762 15.1763C12.5086 16.1642 11.0024 16.7794 9.41573 16.9514C7.82905 17.1233 6.22602 16.8451 4.79009 16.1485C3.35417 15.4519 2.14336 14.3651 1.29623 13.0126C0.449106 11.66 -0.000107143 10.0962 1.91687e-08 8.50025ZM7.5 5.00025C7.5 4.73504 7.60536 4.48068 7.79289 4.29315C7.98043 4.10561 8.23478 4.00025 8.5 4.00025C9.69347 4.00025 10.8381 4.47436 11.682 5.31827C12.5259 6.16219 13 7.30678 13 8.50025C13 8.76547 12.8946 9.01982 12.7071 9.20736C12.5196 9.3949 12.2652 9.50025 12 9.50025C11.7348 9.50025 11.4804 9.3949 11.2929 9.20736C11.1054 9.01982 11 8.76547 11 8.50025C11 7.83721 10.7366 7.20133 10.2678 6.73249C9.79893 6.26365 9.16304 6.00025 8.5 6.00025C8.23478 6.00025 7.98043 5.8949 7.79289 5.70736C7.60536 5.51982 7.5 5.26547 7.5 5.00025Z" fill="black"/>
</svg>
